<svg xmlns="http://www.w3.org/2000/svg" viewBox="0 0 72 44.01"><g fill-rule="evenodd" clip-rule="evenodd"><path fill="#035087" d="M.03 23.26h7.48c4 0 7.05 1.94 7.05 5.39 0 3.54-3.3 5.78-6.77 5.78-.77 0-1.54-.09-2.25-.43 2.65-.15 5.5-1.78 5.5-4.74 0-2.7-1.9-3.78-4.36-3.78-.74 0-1.45.06-2.16.18v13.88c0 1.73-.03 2.96 1.6 3.88v.1H0v-.1c1.57-.55 1.39-2.83 1.39-4.22V27.6c0-1.38.18-3.63-1.36-4.25v-.09m20.3 8.16h1.02c2 0 4.86-.68 4.86-3.2 0-2.13-1.97-3.23-3.81-3.05l-2.06.22v6.03zm0 9.63l2.68.25c2.52.24 5.08-.93 5.08-3.85 0-2.99-2.9-4.28-5.6-4.13l-2.15.13v7.6zm-3.13-1.88v-11.6c0-1.38.21-3.63-1.36-4.22v-.09h7.3c4.06 0 6.43 1.73 6.43 4.46 0 2.07-1.33 3.24-3.08 4 2.77.59 5.02 2.44 5.02 5.45 0 2.37-1.64 4.4-3.7 5.39-2.15 1.04-4.58.95-6.9.95h-5.07v-.09c1.54-.59 1.36-2.83 1.36-4.25zM50.67 23.3v3.54h-.09C49.32 25.42 46.98 25 45.1 25c-4.8 0-8.46 3.14-8.46 8.09 0 4.95 3.94 8.7 8.8 8.7 1.42 0 2.9-.18 4.28-.58v-4.43c0-1.41-.03-2.92-1.42-3.48v-.09h4.71v.1c-.15.36-.15.85-.15 1.32v7.08c0 .46-.03.95.15 1.38-2.46.46-4.86.92-7.35.92-7.88 0-12.53-4.3-12.53-10.5 0-6.6 5.26-10.73 12.71-10.73 1.63 0 3.23.18 4.83.52zm19.76.25v3.54a10.69 10.69 0 00-5.7-1.76c-4.24 0-7.2 3.11-7.2 7.58 0 4.52 3.08 8.55 7.82 8.55 2.31 0 4.62-.83 6.56-1.94H72l-1.57 3.57a10.9 10.9 0 01-4.65.93c-7.26 0-11.75-4.07-11.75-10.65 0-6.37 4.49-10.59 10.8-10.59 1.88 0 3.78.34 5.6.77z"/><path fill="#FFF" d="M29.5 1.07A19.8 19.8 0 0136 0c2.29 0 4.44.35 6.49 1.03L37.79 15.2a5.88 5.88 0 00-1.79-.3c-.65 0-1.22.1-1.8.3L29.5 1.07"/><path fill="#035087" d="M29.5 1.07A19.8 19.8 0 0136 0c2.29 0 4.44.35 6.49 1.03L37.79 15.2a5.88 5.88 0 00-1.79-.3c-.65 0-1.22.1-1.8.3L29.5 1.07m6.49 1.62l-.82 2.53H32.5l2.16 1.57-.83 2.53L36 7.76l2.15 1.56-.82-2.53 2.15-1.57h-2.66L36 2.7z"/><path fill="#EF3F43" d="M17.62 20.57c0-7.45 4.5-13.88 10.86-16.78l1.94 5.43a12.49 12.49 0 00-7.05 11.83h-5.75v-.48m13.36-9.8a11.07 11.07 0 00-5.99 10.28h5.36a5.5 5.5 0 012.46-5.17l-1.83-5.12zm10.02 0a11.04 11.04 0 016 10.28h-5.37c.02-.16.02-.32.02-.48a5.55 5.55 0 00-2.49-4.7l1.84-5.1zm2.5-6.97a18.37 18.37 0 0110.86 17.24h-5.75l.01-.48c0-4.97-2.9-9.26-7.06-11.34L43.5 3.8z"/></g></svg>
